<?xml version="1.0" encoding="UTF-8"?>
<svg xmlns="http://www.w3.org/2000/svg" xmlns:xlink="http://www.w3.org/1999/xlink" width="600px" height="399px" viewBox="0 0 600 399" version="1.1">
<defs>
<filter id="alpha" filterUnits="objectBoundingBox" x="0%" y="0%" width="100%" height="100%">
  <feColorMatrix type="matrix" in="SourceGraphic" values="0 0 0 0 1 0 0 0 0 1 0 0 0 0 1 0 0 0 1 0"/>
</filter>
<mask id="mask0">
  <g filter="url(#alpha)">
<rect x="0" y="0" width="600" height="399" style="fill:rgb(0%,0%,0%);fill-opacity:0.2;stroke:none;"/>
  </g>
</mask>
<clipPath id="clip1">
  <rect x="0" y="0" width="600" height="399"/>
</clipPath>
<g id="surface5" clip-path="url(#clip1)">
<path style=" stroke:none;fill-rule:nonzero;fill:rgb(0%,0%,0%);fill-opacity:1;" d="M 55.183594 312.667969 L 70.90625 398.28125 L 80.34375 399.101562 Z M 55.183594 312.667969 "/>
</g>
<mask id="mask1">
  <g filter="url(#alpha)">
<rect x="0" y="0" width="600" height="399" style="fill:rgb(0%,0%,0%);fill-opacity:0.2;stroke:none;"/>
  </g>
</mask>
<clipPath id="clip2">
  <rect x="0" y="0" width="600" height="399"/>
</clipPath>
<g id="surface8" clip-path="url(#clip2)">
<path style=" stroke:none;fill-rule:nonzero;fill:rgb(0%,0%,0%);fill-opacity:1;" d="M 228.394531 306.210938 L 212.671875 398.21875 L 203.234375 399.101562 Z M 228.394531 306.210938 "/>
</g>
</defs>
<g id="surface1">
<path style=" stroke:none;fill-rule:nonzero;fill:rgb(94.117647%,94.117647%,94.117647%);fill-opacity:1;" d="M 215.273438 229.6875 C 235.839844 193.484375 275.074219 165.683594 316.605469 168.363281 C 285.96875 201.699219 268.105469 244.800781 266.175781 290.046875 C 265.492188 307.5 266.550781 326.980469 254.96875 340.050781 C 247.765625 348.179688 236.75 352.121094 225.921875 352.945312 C 215.09375 353.769531 204.265625 351.8125 193.582031 349.863281 L 190.988281 350.660156 C 190.003906 309.027344 194.707031 265.890625 215.273438 229.6875 Z M 215.273438 229.6875 "/>
<path style=" stroke:none;fill-rule:nonzero;fill:rgb(100%,100%,100%);fill-opacity:1;" d="M 316.664062 169.234375 C 285.953125 184.027344 259.765625 208.738281 243.691406 238.871094 C 240.214844 245.382812 237.257812 252.296875 235.964844 259.601562 C 234.675781 266.914062 235.578125 273.875 238.074219 280.816406 C 240.355469 287.164062 243.421875 293.394531 244.121094 300.1875 C 244.859375 307.34375 242.226562 314.039062 237.488281 319.351562 C 231.691406 325.851562 223.902344 329.882812 216.152344 333.554688 C 207.546875 337.636719 198.542969 341.738281 192.445312 349.351562 C 191.707031 350.273438 190.320312 349.074219 191.058594 348.152344 C 201.664062 334.902344 219.816406 332.414062 232.40625 321.742188 C 238.28125 316.761719 242.691406 309.980469 242.410156 302.035156 C 242.167969 295.089844 239.007812 288.664062 236.644531 282.253906 C 234.160156 275.527344 232.921875 268.761719 233.8125 261.589844 C 234.722656 254.25 237.417969 247.210938 240.710938 240.636719 C 248.140625 225.804688 258.308594 212.191406 269.953125 200.425781 C 283.335938 186.898438 298.933594 175.761719 316.070312 167.496094 C 317.132812 166.988281 317.71875 168.726562 316.664062 169.234375 Z M 316.664062 169.234375 "/>
<path style=" stroke:none;fill-rule:nonzero;fill:rgb(100%,100%,100%);fill-opacity:1;" d="M 248.402344 228.800781 C 238.675781 221.683594 235.535156 208.566406 240.980469 197.816406 C 241.515625 196.765625 243.175781 197.550781 242.636719 198.601562 C 237.546875 208.609375 240.5 220.835938 249.597656 227.410156 C 250.554688 228.101562 249.351562 229.488281 248.402344 228.800781 Z M 248.402344 228.800781 "/>
<path style=" stroke:none;fill-rule:nonzero;fill:rgb(100%,100%,100%);fill-opacity:1;" d="M 236.492188 277.75 C 248.289062 276.027344 259.003906 269.914062 266.5 260.636719 C 267.242188 259.714844 268.628906 260.917969 267.886719 261.835938 C 260.070312 271.476562 248.90625 277.8125 236.625 279.582031 C 235.457031 279.75 235.328125 277.917969 236.492188 277.75 Z M 236.492188 277.75 "/>
<path style=" stroke:none;fill-rule:nonzero;fill:rgb(100%,100%,100%);fill-opacity:1;" d="M 284.242188 189.15625 C 287.378906 192.636719 292.054688 194.304688 296.683594 193.59375 C 297.851562 193.410156 297.976562 195.242188 296.816406 195.425781 C 291.703125 196.183594 286.542969 194.355469 283.042969 190.546875 C 282.675781 190.207031 282.636719 189.640625 282.949219 189.25 C 283.28125 188.871094 283.859375 188.828125 284.242188 189.15625 Z M 284.242188 189.15625 "/>
<path style=" stroke:none;fill-rule:nonzero;fill:rgb(94.117647%,94.117647%,94.117647%);fill-opacity:1;" d="M 399.238281 282.570312 C 398.511719 282.707031 397.785156 282.839844 397.050781 282.992188 C 387.300781 284.851562 377.714844 287.503906 368.394531 290.917969 C 367.667969 291.171875 366.9375 291.4375 366.222656 291.710938 C 343.847656 300.175781 323.242188 312.726562 305.445312 328.71875 C 298.371094 335.089844 291.789062 341.992188 285.761719 349.359375 C 277.433594 359.539062 269.21875 371.238281 258.339844 377.875 C 257.210938 378.582031 256.042969 379.214844 254.835938 379.777344 L 192.160156 353.761719 C 192.050781 353.632812 191.929688 353.515625 191.816406 353.382812 L 189.265625 352.460938 C 189.550781 352.058594 189.855469 351.648438 190.136719 351.246094 C 190.300781 351.011719 190.480469 350.785156 190.644531 350.550781 C 190.757812 350.394531 190.871094 350.242188 190.964844 350.097656 C 191.003906 350.046875 191.042969 349.996094 191.074219 349.957031 C 191.167969 349.8125 191.269531 349.6875 191.359375 349.554688 C 193.050781 347.253906 194.757812 344.964844 196.488281 342.679688 C 196.496094 342.664062 196.496094 342.664062 196.515625 342.65625 C 209.730469 325.285156 224.515625 308.863281 241.320312 295.210938 C 241.824219 294.800781 242.335938 294.375 242.871094 293.976562 C 250.480469 287.863281 258.574219 282.386719 267.074219 277.59375 C 271.738281 274.984375 276.53125 272.613281 281.433594 270.488281 C 294.113281 265.023438 307.570312 261.589844 321.316406 260.308594 C 348.71875 257.761719 376.628906 264.015625 397.644531 281.242188 C 398.183594 281.679688 398.707031 282.117188 399.238281 282.570312 Z M 399.238281 282.570312 "/>
<path style=" stroke:none;fill-rule:nonzero;fill:rgb(100%,100%,100%);fill-opacity:1;" d="M 398.765625 283.308594 C 365.34375 276.621094 329.570312 280.570312 298.601562 294.945312 C 291.910156 298.054688 285.386719 301.789062 279.960938 306.847656 C 274.53125 311.90625 271.0625 318.003906 268.878906 325.050781 C 266.878906 331.496094 265.582031 338.316406 262.054688 344.160156 C 258.335938 350.324219 252.203125 354.082031 245.226562 355.46875 C 236.683594 357.164062 228.042969 355.691406 219.644531 353.957031 C 210.316406 352.027344 200.660156 349.878906 191.214844 352.285156 C 190.070312 352.578125 189.683594 350.78125 190.824219 350.492188 C 207.265625 346.304688 223.257812 355.25 239.730469 354.316406 C 247.414062 353.878906 255.015625 351.121094 259.574219 344.609375 C 263.5625 338.914062 264.90625 331.882812 266.871094 325.339844 C 268.9375 318.472656 272.019531 312.324219 277.046875 307.132812 C 282.1875 301.824219 288.578125 297.824219 295.164062 294.558594 C 310.015625 287.195312 326.324219 282.449219 342.703125 280.070312 C 361.527344 277.332031 380.683594 277.839844 399.335938 281.566406 C 400.492188 281.796875 399.914062 283.539062 398.765625 283.308594 Z M 398.765625 283.308594 "/>
<path style=" stroke:none;fill-rule:nonzero;fill:rgb(100%,100%,100%);fill-opacity:1;" d="M 308.421875 289.742188 C 304.9375 278.203125 310.324219 265.835938 321.140625 260.53125 C 322.199219 260.015625 323.050781 261.644531 321.988281 262.160156 C 311.902344 267.082031 306.90625 278.625 310.214844 289.355469 C 310.5625 290.484375 308.765625 290.863281 308.421875 289.742188 Z M 308.421875 289.742188 "/>
<path style=" stroke:none;fill-rule:nonzero;fill:rgb(100%,100%,100%);fill-opacity:1;" d="M 269.460938 321.652344 C 279.917969 327.382812 292.148438 328.957031 303.71875 326.066406 C 304.863281 325.777344 305.25 327.570312 304.105469 327.859375 C 292.0625 330.847656 279.335938 329.183594 268.464844 323.195312 C 267.429688 322.625 268.429688 321.085938 269.460938 321.652344 Z M 269.460938 321.652344 "/>
<path style=" stroke:none;fill-rule:nonzero;fill:rgb(100%,100%,100%);fill-opacity:1;" d="M 360.890625 279.683594 C 361.304688 284.351562 364.03125 288.5 368.15625 290.722656 C 369.195312 291.277344 368.195312 292.816406 367.160156 292.261719 C 362.621094 289.789062 359.601562 285.21875 359.097656 280.070312 C 359.007812 279.578125 359.316406 279.101562 359.800781 278.980469 C 360.296875 278.875 360.78125 279.1875 360.890625 279.683594 Z M 360.890625 279.683594 "/>
<path style=" stroke:none;fill-rule:nonzero;fill:rgb(24.705882%,23.921569%,33.72549%);fill-opacity:1;" d="M 279.847656 325.488281 C 271.070312 283.019531 260.097656 268.863281 260.097656 268.863281 L 255.90625 265.609375 L 250.867188 261.691406 L 250.890625 261.1875 L 249.695312 260.78125 L 249.414062 260.5625 L 248.953125 260.210938 L 248.882812 260.289062 L 248.726562 260.453125 L 225.914062 252.691406 L 196.976562 242.859375 L 183.578125 225.429688 C 179.15625 219.675781 172.292969 216.324219 165.039062 216.378906 L 122.242188 216.695312 C 116.457031 216.738281 110.894531 218.945312 106.652344 222.882812 L 78.527344 248.992188 L 34.695312 269.9375 L 34.621094 269.863281 L 34.164062 270.195312 L 27.390625 273.433594 L 27.671875 274.890625 L 23.480469 277.914062 C 23.480469 277.914062 12.507812 291.089844 3.730469 330.605469 C 1.496094 340.660156 0.398438 362.230469 0 388.808594 C -0.0390625 391.523438 1.011719 394.140625 2.914062 396.078125 C 4.820312 398.011719 7.421875 399.101562 10.136719 399.101562 L 273.453125 399.101562 C 276.164062 399.101562 278.765625 398.011719 280.667969 396.078125 C 282.574219 394.148438 283.625 391.53125 283.585938 388.816406 C 283.199219 359.898438 282.101562 336.394531 279.847656 325.488281 Z M 279.847656 325.488281 "/>
<path style=" stroke:none;fill-rule:nonzero;fill:rgb(89.803922%,89.803922%,89.803922%);fill-opacity:1;" d="M 309.882812 37.035156 C 290.917969 37.035156 275.542969 52.421875 275.542969 71.398438 C 275.542969 90.378906 290.917969 105.761719 309.882812 105.761719 L 565.808594 105.761719 C 584.773438 105.761719 600.148438 90.378906 600.148438 71.398438 C 600.148438 52.421875 584.773438 37.035156 565.808594 37.035156 Z M 309.882812 37.035156 "/>
<path style=" stroke:none;fill-rule:nonzero;fill:rgb(100%,100%,100%);fill-opacity:1;" d="M 309.882812 43.988281 C 294.757812 43.988281 282.492188 56.261719 282.492188 71.398438 C 282.492188 86.535156 294.757812 98.808594 309.882812 98.808594 L 565.808594 98.808594 C 580.933594 98.808594 593.199219 86.535156 593.199219 71.398438 C 593.199219 56.261719 580.933594 43.988281 565.808594 43.988281 Z M 309.882812 43.988281 "/>
<path style=" stroke:none;fill-rule:nonzero;fill:rgb(61.960784%,38.039216%,41.568627%);fill-opacity:1;" d="M 206.425781 144.191406 C 206.425781 175.175781 181.324219 200.292969 150.363281 200.292969 C 119.398438 200.292969 94.296875 175.175781 94.296875 144.191406 C 94.296875 113.207031 119.398438 88.089844 150.363281 88.089844 C 181.324219 88.089844 206.425781 113.207031 206.425781 144.191406 Z M 206.425781 144.191406 "/>
<path style=" stroke:none;fill-rule:nonzero;fill:rgb(18.431373%,18.039216%,25.490196%);fill-opacity:1;" d="M 136.019531 197.546875 C 135.78125 197.015625 135.539062 196.488281 135.300781 195.957031 C 135.394531 195.960938 135.484375 195.972656 135.578125 195.976562 Z M 136.019531 197.546875 "/>
<path style=" stroke:none;fill-rule:nonzero;fill:rgb(18.431373%,18.039216%,25.490196%);fill-opacity:1;" d="M 92.738281 90.640625 C 95.574219 88.375 98.886719 86.292969 102.511719 86.410156 C 106.136719 86.527344 109.8125 89.804688 109.0625 93.355469 C 122.808594 69.003906 152.039062 58.035156 178.398438 67.339844 C 187.410156 70.519531 196.246094 76.886719 198.316406 86.21875 C 198.847656 88.613281 198.960938 91.242188 200.457031 93.1875 C 202.339844 95.640625 205.945312 96.195312 208.917969 95.332031 C 208.945312 95.324219 208.976562 95.316406 209.003906 95.308594 C 210.03125 94.957031 211.167969 95.265625 211.875 96.09375 C 212.578125 96.917969 212.710938 98.089844 212.207031 99.050781 L 209.65625 103.808594 C 212.871094 104.523438 216.210938 104.453125 219.390625 103.601562 C 220.472656 103.316406 221.617188 103.742188 222.25 104.667969 C 222.878906 105.59375 222.859375 106.816406 222.203125 107.722656 C 213.792969 119.269531 199.75 126.730469 185.417969 126.640625 C 175.230469 126.578125 164.9375 123.066406 155.023438 125.410156 C 147.257812 127.246094 140.734375 132.5 137.289062 139.703125 C 133.839844 146.90625 133.832031 155.285156 137.269531 162.496094 C 134.222656 159.160156 128.335938 159.949219 125.21875 163.21875 C 122.105469 166.488281 121.296875 171.367188 121.613281 175.871094 C 122.089844 182.761719 124.789062 189.257812 127.632812 195.578125 C 103.785156 194.824219 81.226562 178.085938 73.636719 155.441406 C 66.011719 132.703125 74 105.597656 92.738281 90.640625 Z M 92.738281 90.640625 "/>
<use xlink:href="#surface5" mask="url(#mask0)"/>
<use xlink:href="#surface8" mask="url(#mask1)"/>
<path style=" stroke:none;fill-rule:nonzero;fill:rgb(42.352941%,38.823529%,100%);fill-opacity:1;" d="M 106.148438 61.828125 C 103.132812 63.085938 99.988281 61.707031 98.667969 58.542969 C 97.328125 55.335938 98.582031 52.074219 101.644531 50.796875 C 104.707031 49.515625 107.796875 50.898438 109.160156 54.160156 C 110.5 57.375 109.261719 60.527344 106.148438 61.828125 Z M 100.375 44.476562 L 97.976562 45.480469 C 96.734375 45.992188 95.308594 45.46875 94.691406 44.273438 L 94.574219 44.042969 C 91.992188 39.386719 91.699219 33.730469 93.699219 27.234375 C 95.554688 21.410156 96.324219 17.3125 94.777344 13.601562 C 92.984375 9.308594 89.160156 7.964844 84.285156 9.914062 C 82.394531 10.703125 81.792969 10.691406 80.304688 12.167969 C 79.648438 12.824219 78.757812 13.1875 77.828125 13.171875 C 76.933594 13.164062 76.082031 12.789062 75.464844 12.136719 C 74.25 10.84375 74.238281 8.832031 75.441406 7.527344 C 77.945312 4.910156 80.960938 2.835938 84.304688 1.441406 C 94.78125 -2.9375 100.054688 3.527344 102.46875 9.308594 C 104.828125 14.96875 103.5 20.214844 101.367188 27.015625 C 99.578125 32.664062 99.683594 36.847656 101.714844 41.011719 C 102.011719 41.648438 102.035156 42.375 101.78125 43.03125 C 101.53125 43.683594 101.019531 44.207031 100.375 44.476562 Z M 100.375 44.476562 "/>
<path style=" stroke:none;fill-rule:nonzero;fill:rgb(42.352941%,38.823529%,100%);fill-opacity:1;" d="M 366.414062 87.789062 L 315.496094 87.789062 C 315.054688 87.792969 314.648438 87.558594 314.425781 87.175781 C 314.203125 86.796875 314.203125 86.324219 314.425781 85.945312 C 314.648438 85.5625 315.054688 85.332031 315.496094 85.332031 L 366.414062 85.332031 C 367.089844 85.339844 367.632812 85.886719 367.632812 86.5625 C 367.632812 87.234375 367.089844 87.785156 366.414062 87.789062 Z M 366.414062 87.789062 "/>
<path style=" stroke:none;fill-rule:nonzero;fill:rgb(42.352941%,38.823529%,100%);fill-opacity:1;" d="M 431.007812 88.195312 L 380.089844 88.195312 C 379.648438 88.199219 379.242188 87.96875 379.019531 87.585938 C 378.800781 87.203125 378.800781 86.734375 379.019531 86.355469 C 379.242188 85.972656 379.648438 85.738281 380.089844 85.742188 L 431.007812 85.742188 C 431.449219 85.738281 431.855469 85.972656 432.078125 86.355469 C 432.296875 86.734375 432.296875 87.203125 432.078125 87.585938 C 431.855469 87.96875 431.449219 88.199219 431.007812 88.195312 Z M 431.007812 88.195312 "/>
<path style=" stroke:none;fill-rule:nonzero;fill:rgb(42.352941%,38.823529%,100%);fill-opacity:1;" d="M 495.601562 88.605469 L 444.683594 88.605469 C 444.007812 88.601562 443.464844 88.054688 443.464844 87.378906 C 443.464844 86.703125 444.007812 86.15625 444.683594 86.152344 L 495.601562 86.152344 C 496.042969 86.148438 496.449219 86.382812 496.671875 86.761719 C 496.890625 87.144531 496.890625 87.613281 496.671875 87.996094 C 496.449219 88.375 496.042969 88.609375 495.601562 88.605469 Z M 495.601562 88.605469 "/>
<path style=" stroke:none;fill-rule:nonzero;fill:rgb(42.352941%,38.823529%,100%);fill-opacity:1;" d="M 560.195312 89.015625 L 509.277344 89.015625 C 508.601562 89.011719 508.058594 88.460938 508.058594 87.789062 C 508.058594 87.113281 508.601562 86.566406 509.277344 86.5625 L 560.195312 86.5625 C 560.871094 86.566406 561.414062 87.113281 561.414062 87.789062 C 561.414062 88.460938 560.871094 89.011719 560.195312 89.015625 Z M 560.195312 89.015625 "/>
<path style=" stroke:none;fill-rule:nonzero;fill:rgb(42.352941%,38.823529%,100%);fill-opacity:1;" d="M 350.304688 67.023438 C 350.304688 72.253906 346.070312 76.492188 340.84375 76.492188 C 335.617188 76.492188 331.378906 72.253906 331.378906 67.023438 C 331.378906 61.792969 335.617188 57.554688 340.84375 57.554688 C 346.070312 57.554688 350.304688 61.792969 350.304688 67.023438 Z M 350.304688 67.023438 "/>
<path style=" stroke:none;fill-rule:nonzero;fill:rgb(42.352941%,38.823529%,100%);fill-opacity:1;" d="M 415.289062 67.023438 C 415.289062 72.253906 411.054688 76.492188 405.828125 76.492188 C 400.601562 76.492188 396.363281 72.253906 396.363281 67.023438 C 396.363281 61.792969 400.601562 57.554688 405.828125 57.554688 C 411.054688 57.554688 415.289062 61.792969 415.289062 67.023438 Z M 415.289062 67.023438 "/>
<path style=" stroke:none;fill-rule:nonzero;fill:rgb(42.352941%,38.823529%,100%);fill-opacity:1;" d="M 480.273438 67.023438 C 480.273438 72.253906 476.039062 76.492188 470.8125 76.492188 C 465.585938 76.492188 461.347656 72.253906 461.347656 67.023438 C 461.347656 61.792969 465.585938 57.554688 470.8125 57.554688 C 476.039062 57.554688 480.273438 61.792969 480.273438 67.023438 Z M 480.273438 67.023438 "/>
<path style=" stroke:none;fill-rule:nonzero;fill:rgb(42.352941%,38.823529%,100%);fill-opacity:1;" d="M 545.257812 67.023438 C 545.257812 72.253906 541.023438 76.492188 535.796875 76.492188 C 530.570312 76.492188 526.332031 72.253906 526.332031 67.023438 C 526.332031 61.792969 530.570312 57.554688 535.796875 57.554688 C 541.023438 57.554688 545.257812 61.792969 545.257812 67.023438 Z M 545.257812 67.023438 "/>
</g>
</svg>
