<?xml version="1.0" encoding="UTF-8"?>
<svg xmlns="http://www.w3.org/2000/svg" xmlns:xlink="http://www.w3.org/1999/xlink" width="580px" height="480px" viewBox="0 0 579 480" version="1.1">
<defs>
<filter id="alpha" filterUnits="objectBoundingBox" x="0%" y="0%" width="100%" height="100%">
  <feColorMatrix type="matrix" in="SourceGraphic" values="0 0 0 0 1 0 0 0 0 1 0 0 0 0 1 0 0 0 1 0"/>
</filter>
<mask id="mask0">
  <g filter="url(#alpha)">
<rect x="0" y="0" width="579" height="480" style="fill:rgb(0%,0%,0%);fill-opacity:0.101961;stroke:none;"/>
  </g>
</mask>
<clipPath id="clip1">
  <rect x="0" y="0" width="579" height="480"/>
</clipPath>
<g id="surface5" clip-path="url(#clip1)">
<path style=" stroke:none;fill-rule:nonzero;fill:rgb(0%,0%,0%);fill-opacity:1;" d="M 501.800781 414.175781 C 501.800781 430.183594 397.027344 479.988281 267.789062 479.988281 C 138.546875 479.988281 33.773438 430.183594 33.773438 414.175781 C 33.773438 398.171875 130.101562 362.253906 259.34375 362.253906 C 388.585938 362.253906 501.800781 398.171875 501.800781 414.175781 Z M 501.800781 414.175781 "/>
</g>
<mask id="mask1">
  <g filter="url(#alpha)">
<rect x="0" y="0" width="579" height="480" style="fill:rgb(0%,0%,0%);fill-opacity:0.2;stroke:none;"/>
  </g>
</mask>
<clipPath id="clip2">
  <rect x="0" y="0" width="579" height="480"/>
</clipPath>
<g id="surface8" clip-path="url(#clip2)">
<path style=" stroke:none;fill-rule:nonzero;fill:rgb(0%,0%,0%);fill-opacity:1;" d="M 386.949219 381.371094 C 381.796875 381.414062 374.980469 380.566406 373.609375 379.730469 C 372.5625 379.09375 372.148438 376.808594 372.007812 375.75 C 371.910156 375.753906 371.855469 375.757812 371.855469 375.757812 C 371.855469 375.757812 372.144531 379.441406 373.515625 380.277344 C 374.890625 381.113281 381.707031 381.960938 386.859375 381.917969 C 388.34375 381.90625 388.859375 381.375 388.828125 380.59375 C 388.625 381.066406 388.054688 381.363281 386.949219 381.371094 Z M 386.949219 381.371094 "/>
</g>
<mask id="mask2">
  <g filter="url(#alpha)">
<rect x="0" y="0" width="579" height="480" style="fill:rgb(0%,0%,0%);fill-opacity:0.101961;stroke:none;"/>
  </g>
</mask>
<clipPath id="clip3">
  <rect x="0" y="0" width="579" height="480"/>
</clipPath>
<g id="surface11" clip-path="url(#clip3)">
<path style=" stroke:none;fill-rule:nonzero;fill:rgb(0%,0%,0%);fill-opacity:1;" d="M 350.414062 411.160156 C 350.414062 404.15625 314.773438 398.480469 270.804688 398.480469 C 226.835938 398.480469 191.191406 404.15625 191.191406 411.160156 C 191.191406 418.160156 226.835938 423.835938 270.804688 423.835938 C 314.773438 423.835938 350.414062 418.160156 350.414062 411.160156 Z M 350.414062 411.160156 "/>
</g>
<mask id="mask3">
  <g filter="url(#alpha)">
<rect x="0" y="0" width="579" height="480" style="fill:rgb(0%,0%,0%);fill-opacity:0.101961;stroke:none;"/>
  </g>
</mask>
<clipPath id="clip4">
  <rect x="0" y="0" width="579" height="480"/>
</clipPath>
<g id="surface14" clip-path="url(#clip4)">
<path style=" stroke:none;fill-rule:nonzero;fill:rgb(0%,0%,0%);fill-opacity:1;" d="M 287.828125 160.640625 C 287.828125 160.640625 287.132812 166.910156 285.742188 166.910156 C 284.347656 166.910156 279.480469 169.347656 279.480469 169.347656 L 278.085938 175.964844 L 287.828125 181.886719 L 303.832031 180.144531 L 308.355469 173.179688 L 303.832031 168.648438 C 303.832031 168.648438 300.003906 160.292969 301.398438 158.550781 C 302.789062 156.808594 287.828125 160.640625 287.828125 160.640625 Z M 287.828125 160.640625 "/>
</g>
</defs>
<g id="surface1">
<path style=" stroke:none;fill-rule:nonzero;fill:rgb(94.901961%,94.901961%,94.901961%);fill-opacity:1;" d="M 511.9375 274.378906 C 508.761719 301.640625 502.15625 323.527344 493.089844 340.984375 C 481.027344 364.238281 460.394531 373.609375 441.964844 383.414062 C 436.636719 386.242188 431.101562 388.652344 425.402344 390.625 C 391.863281 402.277344 354.324219 399.1875 324.835938 393.035156 C 304.15625 388.714844 283.164062 386.058594 262.058594 385.089844 C 256.039062 384.816406 250.011719 384.683594 243.980469 384.683594 C 234.683594 384.695312 67.222656 387.878906 26.453125 305.246094 C 16.386719 284.863281 9.488281 259.960938 7.007812 229.609375 C -0.0078125 143.800781 38.546875 87.445312 88.273438 50.609375 C 182.34375 -19.070312 311.285156 -16.148438 403.96875 55.367188 C 465.703125 103.003906 523.507812 175.101562 511.9375 274.378906 Z M 511.9375 274.378906 "/>
<path style=" stroke:none;fill-rule:nonzero;fill:rgb(42.352941%,38.823529%,100%);fill-opacity:1;" d="M 180.9375 249.539062 C 180.9375 317.746094 140.433594 341.558594 90.46875 341.558594 C 40.503906 341.558594 0 317.746094 0 249.539062 C 0 181.332031 90.46875 94.5625 90.46875 94.5625 C 90.46875 94.5625 180.9375 181.332031 180.9375 249.539062 Z M 180.9375 249.539062 "/>
<path style=" stroke:none;fill-rule:nonzero;fill:rgb(24.705882%,23.921569%,33.72549%);fill-opacity:1;" d="M 87.171875 331.125 L 88.101562 274.042969 L 126.660156 203.425781 L 88.246094 265.089844 L 88.660156 239.421875 L 115.238281 188.328125 L 88.773438 232.628906 L 89.519531 186.46875 L 117.976562 145.789062 L 89.636719 179.207031 L 90.105469 94.5625 L 87.164062 206.617188 L 87.40625 201.996094 L 58.472656 157.660156 L 86.941406 210.867188 L 84.246094 262.425781 L 84.167969 261.054688 L 50.8125 214.402344 L 84.066406 265.890625 L 83.726562 272.339844 L 83.667969 272.433594 L 83.695312 272.964844 L 76.855469 403.765625 L 85.996094 403.765625 L 87.089844 336.207031 L 120.261719 284.839844 Z M 87.171875 331.125 "/>
<path style=" stroke:none;fill-rule:nonzero;fill:rgb(42.352941%,38.823529%,100%);fill-opacity:1;" d="M 579 253.765625 C 579 321.972656 538.496094 345.785156 488.53125 345.785156 C 438.566406 345.785156 398.0625 321.972656 398.0625 253.765625 C 398.0625 185.558594 488.53125 98.789062 488.53125 98.789062 C 488.53125 98.789062 579 185.558594 579 253.765625 Z M 579 253.765625 "/>
<path style=" stroke:none;fill-rule:nonzero;fill:rgb(24.705882%,23.921569%,33.72549%);fill-opacity:1;" d="M 485.234375 335.351562 L 486.164062 278.269531 L 524.722656 207.652344 L 486.308594 269.316406 L 486.722656 243.648438 L 513.300781 192.554688 L 486.835938 236.855469 L 487.582031 190.695312 L 516.039062 150.015625 L 487.699219 183.433594 L 488.167969 98.789062 L 485.226562 210.84375 L 485.46875 206.222656 L 456.535156 161.886719 L 485.003906 215.09375 L 482.308594 266.652344 L 482.230469 265.28125 L 448.875 218.628906 L 482.128906 270.117188 L 481.789062 276.566406 L 481.730469 276.660156 L 481.757812 277.191406 L 474.917969 407.992188 L 484.058594 407.992188 L 485.152344 340.433594 L 518.324219 289.066406 Z M 485.234375 335.351562 "/>
<path style=" stroke:none;fill-rule:nonzero;fill:rgb(42.352941%,38.823529%,100%);fill-opacity:1;" d="M 390.824219 195.835938 C 390.824219 270.410156 346.539062 296.449219 291.914062 296.449219 C 237.285156 296.449219 193 270.410156 193 195.835938 C 193 121.265625 291.914062 26.394531 291.914062 26.394531 C 291.914062 26.394531 390.824219 121.265625 390.824219 195.835938 Z M 390.824219 195.835938 "/>
<path style=" stroke:none;fill-rule:nonzero;fill:rgb(24.705882%,23.921569%,33.72549%);fill-opacity:1;" d="M 288.308594 285.039062 L 289.320312 222.628906 L 331.480469 145.417969 L 289.480469 212.839844 L 289.9375 184.777344 L 318.992188 128.914062 L 290.058594 177.351562 L 290.875 126.878906 L 321.988281 82.40625 L 291.003906 118.941406 L 291.515625 26.394531 L 288.300781 148.910156 L 288.566406 143.855469 L 256.929688 95.382812 L 288.058594 153.558594 L 285.109375 209.925781 L 285.023438 208.429688 L 248.554688 157.421875 L 284.910156 213.714844 L 284.542969 220.765625 L 284.476562 220.871094 L 284.507812 221.449219 L 277.027344 364.460938 L 287.019531 364.460938 L 288.21875 290.59375 L 324.488281 234.4375 Z M 288.308594 285.039062 "/>
<path style=" stroke:none;fill-rule:nonzero;fill:rgb(24.705882%,23.921569%,33.72549%);fill-opacity:1;" d="M 501.800781 414.175781 C 501.800781 430.183594 397.027344 479.988281 267.789062 479.988281 C 138.546875 479.988281 33.773438 430.183594 33.773438 414.175781 C 33.773438 398.171875 130.101562 362.253906 259.34375 362.253906 C 388.585938 362.253906 501.800781 398.171875 501.800781 414.175781 Z M 501.800781 414.175781 "/>
<use xlink:href="#surface5" mask="url(#mask0)"/>
<path style=" stroke:none;fill-rule:nonzero;fill:rgb(24.705882%,23.921569%,33.72549%);fill-opacity:1;" d="M 501.800781 414.175781 C 501.800781 430.183594 397.027344 443.160156 267.789062 443.160156 C 138.546875 443.160156 33.773438 430.183594 33.773438 414.175781 C 33.773438 398.171875 130.101562 362.253906 259.34375 362.253906 C 388.585938 362.253906 501.800781 398.171875 501.800781 414.175781 Z M 501.800781 414.175781 "/>
<path style=" stroke:none;fill-rule:nonzero;fill:rgb(24.705882%,23.921569%,33.72549%);fill-opacity:1;" d="M 346.453125 333.925781 C 346.453125 356.886719 360.839844 375.464844 378.625 375.464844 "/>
<path style=" stroke:none;fill-rule:nonzero;fill:rgb(42.352941%,38.823529%,100%);fill-opacity:1;" d="M 378.625 375.464844 C 378.625 352.246094 394.679688 333.457031 414.523438 333.457031 "/>
<path style=" stroke:none;fill-rule:nonzero;fill:rgb(42.352941%,38.823529%,100%);fill-opacity:1;" d="M 358.109375 336.003906 C 358.109375 357.816406 367.285156 375.464844 378.625 375.464844 "/>
<path style=" stroke:none;fill-rule:nonzero;fill:rgb(24.705882%,23.921569%,33.72549%);fill-opacity:1;" d="M 378.625 375.464844 C 378.625 345.796875 397.183594 321.789062 420.121094 321.789062 "/>
<path style=" stroke:none;fill-rule:nonzero;fill:rgb(65.882353%,65.882353%,65.882353%);fill-opacity:1;" d="M 371.855469 375.757812 C 371.855469 375.757812 376.417969 375.617188 377.792969 374.636719 C 379.167969 373.65625 384.8125 372.484375 385.152344 374.058594 C 385.492188 375.628906 392.007812 381.875 386.859375 381.917969 C 381.707031 381.960938 374.890625 381.113281 373.515625 380.277344 C 372.144531 379.441406 371.855469 375.757812 371.855469 375.757812 Z M 371.855469 375.757812 "/>
<use xlink:href="#surface8" mask="url(#mask1)"/>
<use xlink:href="#surface11" mask="url(#mask2)"/>
<path style=" stroke:none;fill-rule:nonzero;fill:rgb(100%,72.54902%,72.54902%);fill-opacity:1;" d="M 297.945312 382.78125 L 305.785156 382.78125 L 305.785156 400.894531 L 297.945312 400.894531 Z M 297.945312 382.78125 "/>
<path style=" stroke:none;fill-rule:nonzero;fill:rgb(100%,39.607843%,51.764706%);fill-opacity:1;" d="M 276.230469 138.253906 L 306.386719 138.253906 L 306.386719 192.59375 L 276.230469 192.59375 Z M 276.230469 138.253906 "/>
<path style=" stroke:none;fill-rule:nonzero;fill:rgb(100%,72.54902%,72.54902%);fill-opacity:1;" d="M 328.535156 241.09375 L 329.578125 249.453125 L 302.09375 257.8125 L 298.613281 242.488281 Z M 328.535156 241.09375 "/>
<path style=" stroke:none;fill-rule:nonzero;fill:rgb(100%,72.54902%,72.54902%);fill-opacity:1;" d="M 287.828125 160.640625 C 287.828125 160.640625 287.132812 166.910156 285.742188 166.910156 C 284.347656 166.910156 279.480469 169.347656 279.480469 169.347656 L 278.085938 175.964844 L 287.828125 181.886719 L 303.832031 180.144531 L 308.355469 173.179688 L 303.832031 168.648438 C 303.832031 168.648438 300.003906 160.292969 301.398438 158.550781 C 302.789062 156.808594 287.828125 160.640625 287.828125 160.640625 Z M 287.828125 160.640625 "/>
<use xlink:href="#surface14" mask="url(#mask3)"/>
<path style=" stroke:none;fill-rule:nonzero;fill:rgb(100%,72.54902%,72.54902%);fill-opacity:1;" d="M 244.339844 377.625 C 244.339844 377.625 241.207031 398.519531 237.382812 399.914062 C 233.554688 401.308594 251.992188 403.746094 251.992188 403.746094 L 253.386719 396.082031 C 253.386719 396.082031 253.734375 382.152344 255.125 380.0625 C 256.515625 377.972656 244.339844 377.625 244.339844 377.625 Z M 244.339844 377.625 "/>
<path style=" stroke:none;fill-rule:nonzero;fill:rgb(18.431373%,18.039216%,25.490196%);fill-opacity:1;" d="M 279.828125 256.070312 C 279.828125 256.070312 330.273438 247.015625 330.621094 245.273438 C 330.96875 243.53125 341.058594 258.507812 334.796875 287.765625 C 328.535156 317.019531 312.878906 385.984375 312.878906 385.984375 C 312.878906 385.984375 296.875 390.859375 297.222656 387.027344 C 297.570312 383.195312 302.789062 316.671875 302.789062 316.671875 L 299.308594 288.460938 L 293.394531 291.945312 L 268.691406 340.703125 L 256.167969 382.847656 C 256.167969 382.847656 240.164062 385.632812 242.601562 379.714844 C 245.035156 373.792969 253.035156 327.816406 253.035156 327.816406 L 274.957031 263.035156 C 274.957031 263.035156 274.261719 256.070312 279.828125 256.070312 Z M 279.828125 256.070312 "/>
<path style=" stroke:none;fill-rule:nonzero;fill:rgb(100%,72.54902%,72.54902%);fill-opacity:1;" d="M 307.136719 150.714844 C 307.136719 158.792969 300.59375 165.339844 292.527344 165.339844 C 284.457031 165.339844 277.914062 158.792969 277.914062 150.714844 C 277.914062 142.632812 284.457031 136.085938 292.527344 136.085938 C 300.59375 136.085938 307.136719 142.632812 307.136719 150.714844 Z M 307.136719 150.714844 "/>
<path style=" stroke:none;fill-rule:nonzero;fill:rgb(94.901961%,94.901961%,94.901961%);fill-opacity:1;" d="M 307.660156 169 C 307.660156 169 300.703125 175.617188 284.347656 173.875 C 267.996094 172.132812 288.871094 211.140625 288.871094 211.140625 L 295.484375 250.5 C 295.484375 250.5 324.707031 247.015625 325.75 240.398438 C 326.796875 233.78125 307.660156 169 307.660156 169 Z M 307.660156 169 "/>
<path style=" stroke:none;fill-rule:nonzero;fill:rgb(18.431373%,18.039216%,25.490196%);fill-opacity:1;" d="M 300.703125 206.265625 C 300.703125 206.265625 292.351562 202.085938 289.21875 190.59375 C 286.089844 179.097656 283.304688 167.257812 281.566406 167.605469 C 280.097656 167.898438 266.476562 173.160156 262.058594 176.675781 C 261.246094 177.324219 260.746094 177.914062 260.691406 178.402344 C 260.34375 181.535156 273.214844 212.882812 273.214844 212.882812 C 273.214844 212.882812 283.304688 235.523438 279.128906 242.835938 C 274.957031 250.148438 274.609375 259.554688 282.261719 258.855469 C 289.917969 258.160156 315.3125 256.765625 311.835938 237.261719 C 311.835938 237.261719 318.445312 250.847656 336.882812 241.09375 C 336.882812 241.09375 348.019531 239.351562 347.667969 235.523438 C 347.320312 231.691406 329.925781 198.601562 329.925781 198.601562 C 329.925781 198.601562 327.144531 183.976562 332.363281 178.402344 L 320.53125 164.472656 C 320.53125 164.472656 317.75 160.292969 314.964844 162.382812 C 312.183594 164.472656 305.921875 167.953125 304.875 168.300781 C 303.832031 168.648438 303.148438 167.050781 303.148438 167.050781 C 300.734375 172.097656 299.769531 177.714844 300.355469 183.277344 C 301.398438 192.332031 300.703125 206.265625 300.703125 206.265625 Z M 300.703125 206.265625 "/>
<path style=" stroke:none;fill-rule:nonzero;fill:rgb(18.431373%,18.039216%,25.490196%);fill-opacity:1;" d="M 245.382812 395.734375 C 245.382812 395.734375 244.605469 393.296875 240.125 395.734375 C 240.125 395.734375 241.554688 388.070312 236.683594 388.070312 C 231.8125 388.070312 230.074219 397.128906 230.074219 397.128906 C 230.074219 397.128906 228.683594 403.046875 219.289062 405.488281 C 209.894531 407.925781 217.203125 416.285156 223.8125 416.285156 C 230.421875 416.285156 239.121094 411.058594 239.121094 411.058594 C 239.121094 411.058594 257.210938 411.40625 257.558594 407.925781 C 257.90625 404.441406 255.820312 393.992188 254.429688 393.992188 C 253.035156 393.992188 250.253906 398.871094 250.253906 398.871094 Z M 245.382812 395.734375 "/>
<path style=" stroke:none;fill-rule:nonzero;fill:rgb(18.431373%,18.039216%,25.490196%);fill-opacity:1;" d="M 304.527344 389.605469 C 304.527344 389.605469 299.65625 384.378906 296.875 393.089844 C 294.089844 401.796875 292.003906 405.277344 293.742188 406.671875 C 295.484375 408.066406 296.875 407.367188 296.179688 410.152344 C 295.484375 412.941406 298.265625 418.863281 304.527344 418.863281 C 310.789062 418.863281 312.53125 414.332031 312.183594 411.199219 C 311.835938 408.066406 309.050781 404.234375 309.050781 404.234375 L 306.269531 394.480469 Z M 304.527344 389.605469 "/>
<path style=" stroke:none;fill-rule:nonzero;fill:rgb(100%,72.54902%,72.54902%);fill-opacity:1;" d="M 332.015625 144.617188 L 313.574219 150.886719 C 313.574219 150.886719 296.875 160.640625 304.179688 162.730469 C 311.488281 164.820312 317.75 156.460938 317.75 156.460938 L 333.753906 152.28125 Z M 332.015625 144.617188 "/>
<path style=" stroke:none;fill-rule:nonzero;fill:rgb(100%,39.607843%,51.764706%);fill-opacity:1;" d="M 282.582031 128.09375 C 280.394531 129.59375 278.652344 131.652344 276.992188 133.726562 C 273.628906 137.941406 270.328125 142.976562 271.15625 148.3125 C 271.472656 150.335938 272.371094 152.222656 272.878906 154.207031 C 273.5625 156.890625 273.515625 159.695312 273.46875 162.460938 C 273.507812 163.636719 273.363281 164.8125 273.035156 165.941406 C 272.546875 167.042969 271.976562 168.101562 271.320312 169.113281 C 269.644531 172.238281 269.605469 175.949219 269.605469 179.496094 C 269.523438 180.691406 269.6875 181.890625 270.082031 183.019531 C 270.539062 184.085938 271.390625 184.921875 272.097656 185.839844 C 274.472656 188.996094 275.171875 193.105469 273.972656 196.871094 C 275.824219 196.878906 277.515625 195.8125 278.308594 194.132812 C 278.550781 195.921875 277.984375 197.726562 276.761719 199.054688 C 280.746094 197.871094 285.011719 195.875 286.46875 191.976562 C 286.894531 190.652344 287.132812 189.277344 287.183594 187.886719 C 287.957031 178.113281 288.398438 167.972656 284.894531 158.816406 C 283.773438 155.886719 282.25 153.050781 281.875 149.9375 C 281.5 146.824219 282.648438 143.222656 285.503906 141.9375 C 285.570312 142.734375 285.925781 143.480469 286.5 144.039062 C 287.136719 144.511719 288.3125 144.214844 288.324219 143.421875 L 289.703125 145.34375 C 290.234375 145.085938 290.6875 144.691406 291.015625 144.199219 L 291.960938 145.359375 L 293.976562 143.894531 L 295.722656 145.78125 C 296.394531 145.398438 296.933594 144.8125 297.257812 144.109375 C 297.632812 144.671875 298.097656 145.289062 298.769531 145.351562 C 300.238281 145.484375 300.539062 143.15625 301.820312 142.429688 C 302.796875 141.996094 303.941406 142.34375 304.515625 143.246094 C 305.042969 144.144531 305.238281 145.203125 305.058594 146.230469 C 304.53125 151.019531 300.449219 155.390625 301.65625 160.054688 C 302.339844 162.675781 304.628906 164.777344 304.804688 167.484375 C 304.941406 169.644531 303.671875 171.6875 303.691406 173.851562 C 303.714844 176.390625 305.464844 178.546875 307.175781 180.417969 C 310.21875 183.753906 313.421875 186.933594 316.785156 189.953125 L 315.746094 188.136719 C 316.726562 188.058594 317.691406 188.414062 318.390625 189.109375 C 318.6875 188.0625 318.195312 186.972656 317.726562 185.992188 C 314.929688 180.113281 312.671875 173.851562 312.335938 167.347656 C 311.867188 158.304688 315.113281 149.125 313.054688 140.308594 C 311.871094 135.375 309.113281 130.960938 305.195312 127.734375 C 303.292969 126.164062 301.851562 125.226562 299.386719 125.054688 C 296.628906 124.8125 293.859375 124.835938 291.109375 125.117188 C 288.066406 125.40625 285.144531 126.429688 282.582031 128.09375 Z M 282.582031 128.09375 "/>
<path style=" stroke:none;fill-rule:nonzero;fill:rgb(18.431373%,18.039216%,25.490196%);fill-opacity:1;" d="M 317.75 164.820312 C 317.75 164.820312 321.578125 165.167969 323.316406 164.820312 C 325.054688 164.472656 327.492188 162.730469 327.492188 162.730469 L 340.710938 152.976562 L 329.230469 154.71875 C 329.230469 154.71875 331.316406 138.699219 330.621094 138.347656 C 329.925781 138 364.371094 131.382812 363.675781 142.179688 C 362.976562 152.976562 343.496094 174.222656 332.363281 178.402344 L 325.054688 179.445312 Z M 317.75 164.820312 "/>
<path style=" stroke:none;fill-rule:nonzero;fill:rgb(100%,100%,100%);fill-opacity:1;" d="M 191.191406 288.296875 L 355.242188 288.296875 L 355.242188 326.9375 L 191.191406 326.9375 Z M 191.191406 288.296875 "/>
<path style=" stroke:none;fill-rule:nonzero;fill:rgb(24.705882%,23.921569%,33.72549%);fill-opacity:1;" d="M 212 297.050781 L 333.828125 297.050781 L 333.828125 317.578125 L 212 317.578125 Z M 212 297.050781 "/>
<path style=" stroke:none;fill-rule:nonzero;fill:rgb(100%,100%,100%);fill-opacity:1;" d="M 240.3125 306.863281 C 240.261719 306.339844 237.9375 306.105469 234.746094 306.234375 C 236.59375 303.628906 237.664062 301.550781 237.25 301.222656 C 236.859375 300.914062 235.261719 302.25 233.3125 304.417969 C 233.128906 301.507812 232.703125 299.464844 232.203125 299.464844 C 231.660156 299.464844 231.199219 301.894531 231.050781 305.234375 C 228.339844 303.28125 226.152344 302.136719 225.8125 302.5625 C 225.492188 302.972656 226.957031 304.691406 229.285156 306.75 C 226.210938 307.207031 224.046875 307.851562 224.09375 308.371094 C 224.144531 308.894531 226.46875 309.128906 229.660156 309 C 227.8125 311.605469 226.742188 313.683594 227.15625 314.011719 C 227.546875 314.320312 229.144531 312.984375 231.09375 310.816406 C 231.277344 313.726562 231.703125 315.769531 232.203125 315.769531 C 232.746094 315.769531 233.207031 313.339844 233.355469 310 C 236.066406 311.953125 238.253906 313.097656 238.59375 312.671875 C 238.914062 312.261719 237.449219 310.542969 235.121094 308.480469 C 238.195312 308.027344 240.359375 307.382812 240.3125 306.863281 Z M 240.3125 306.863281 "/>
<path style=" stroke:none;fill-rule:nonzero;fill:rgb(100%,100%,100%);fill-opacity:1;" d="M 260.816406 306.863281 C 260.769531 306.339844 258.441406 306.105469 255.25 306.234375 C 257.101562 303.628906 258.171875 301.550781 257.757812 301.222656 C 257.367188 300.914062 255.765625 302.25 253.820312 304.417969 C 253.636719 301.507812 253.207031 299.464844 252.710938 299.464844 C 252.167969 299.464844 251.707031 301.894531 251.554688 305.234375 C 248.847656 303.28125 246.65625 302.136719 246.320312 302.5625 C 246 302.972656 247.464844 304.691406 249.792969 306.75 C 246.71875 307.207031 244.554688 307.851562 244.601562 308.371094 C 244.652344 308.894531 246.976562 309.128906 250.167969 309 C 248.320312 311.605469 247.246094 313.683594 247.660156 314.011719 C 248.050781 314.320312 249.652344 312.984375 251.601562 310.816406 C 251.785156 313.726562 252.210938 315.769531 252.710938 315.769531 C 253.253906 315.769531 253.710938 313.339844 253.863281 310 C 256.574219 311.953125 258.761719 313.097656 259.097656 312.671875 C 259.417969 312.261719 257.953125 310.542969 255.625 308.480469 C 258.699219 308.027344 260.863281 307.382812 260.816406 306.863281 Z M 260.816406 306.863281 "/>
<path style=" stroke:none;fill-rule:nonzero;fill:rgb(100%,100%,100%);fill-opacity:1;" d="M 281.324219 306.863281 C 281.273438 306.339844 278.949219 306.105469 275.757812 306.234375 C 277.605469 303.628906 278.675781 301.550781 278.261719 301.222656 C 277.871094 300.914062 276.273438 302.25 274.324219 304.417969 C 274.140625 301.507812 273.714844 299.464844 273.214844 299.464844 C 272.671875 299.464844 272.214844 301.894531 272.0625 305.234375 C 269.351562 303.28125 267.164062 302.136719 266.828125 302.5625 C 266.503906 302.972656 267.96875 304.691406 270.296875 306.75 C 267.226562 307.207031 265.058594 307.851562 265.109375 308.371094 C 265.15625 308.894531 267.484375 309.128906 270.671875 309 C 268.824219 311.605469 267.753906 313.683594 268.167969 314.011719 C 268.558594 314.320312 270.160156 312.984375 272.105469 310.816406 C 272.289062 313.726562 272.71875 315.769531 273.214844 315.769531 C 273.757812 315.769531 274.21875 313.339844 274.371094 310 C 277.078125 311.953125 279.265625 313.097656 279.605469 312.671875 C 279.925781 312.261719 278.460938 310.542969 276.132812 308.480469 C 279.207031 308.027344 281.371094 307.382812 281.324219 306.863281 Z M 281.324219 306.863281 "/>
<path style=" stroke:none;fill-rule:nonzero;fill:rgb(100%,100%,100%);fill-opacity:1;" d="M 301.828125 306.863281 C 301.78125 306.339844 299.453125 306.105469 296.265625 306.234375 C 298.113281 303.628906 299.183594 301.550781 298.769531 301.222656 C 298.378906 300.914062 296.777344 302.25 294.832031 304.417969 C 294.648438 301.507812 294.21875 299.464844 293.722656 299.464844 C 293.179688 299.464844 292.71875 301.894531 292.566406 305.234375 C 289.859375 303.28125 287.671875 302.136719 287.332031 302.5625 C 287.011719 302.972656 288.476562 304.691406 290.804688 306.75 C 287.730469 307.207031 285.566406 307.851562 285.613281 308.371094 C 285.664062 308.894531 287.988281 309.128906 291.179688 309 C 289.332031 311.605469 288.261719 313.683594 288.675781 314.011719 C 289.066406 314.320312 290.664062 312.984375 292.613281 310.816406 C 292.796875 313.726562 293.222656 315.769531 293.722656 315.769531 C 294.265625 315.769531 294.722656 313.339844 294.875 310 C 297.585938 311.953125 299.773438 313.097656 300.109375 312.671875 C 300.433594 312.261719 298.96875 310.542969 296.640625 308.480469 C 299.710938 308.027344 301.878906 307.382812 301.828125 306.863281 Z M 301.828125 306.863281 "/>
<path style=" stroke:none;fill-rule:nonzero;fill:rgb(100%,100%,100%);fill-opacity:1;" d="M 322.335938 306.863281 C 322.285156 306.339844 319.960938 306.105469 316.769531 306.234375 C 318.617188 303.628906 319.691406 301.550781 319.277344 301.222656 C 318.886719 300.914062 317.285156 302.25 315.335938 304.417969 C 315.152344 301.507812 314.726562 299.464844 314.226562 299.464844 C 313.683594 299.464844 313.226562 301.894531 313.074219 305.234375 C 310.363281 303.28125 308.175781 302.136719 307.839844 302.5625 C 307.519531 302.972656 308.984375 304.691406 311.3125 306.75 C 308.238281 307.207031 306.074219 307.851562 306.121094 308.371094 C 306.167969 308.894531 308.496094 309.128906 311.6875 309 C 309.835938 311.605469 308.765625 313.683594 309.179688 314.011719 C 309.570312 314.320312 311.171875 312.984375 313.117188 310.816406 C 313.300781 313.726562 313.730469 315.769531 314.226562 315.769531 C 314.769531 315.769531 315.230469 313.339844 315.382812 310 C 318.089844 311.953125 320.28125 313.097656 320.617188 312.671875 C 320.9375 312.261719 319.472656 310.542969 317.144531 308.480469 C 320.21875 308.027344 322.382812 307.382812 322.335938 306.863281 Z M 322.335938 306.863281 "/>
<path style=" stroke:none;fill-rule:nonzero;fill:rgb(100%,72.54902%,72.54902%);fill-opacity:1;" d="M 258.605469 271.742188 C 258.605469 271.742188 256.863281 294.730469 265.214844 295.777344 C 273.5625 296.820312 265.910156 269.652344 265.910156 269.652344 Z M 258.605469 271.742188 "/>
<path style=" stroke:none;fill-rule:nonzero;fill:rgb(18.431373%,18.039216%,25.490196%);fill-opacity:1;" d="M 263.125 177.707031 L 260.691406 178.402344 C 260.691406 178.402344 250.601562 259.207031 257.210938 274.878906 C 257.210938 274.878906 264.171875 271.046875 267.648438 271.742188 L 273.214844 205.917969 Z M 263.125 177.707031 "/>
</g>
</svg>
